#!OML:ASF I:\Actors\actors\Patient Classification 1\Patient 1\Session 1\Subject1.ASF
:FULLY-SPECIFIED
:DEGREES
354
root 0.602361 17.4879 9.26527 8.63463 -6.9962 -11.2447
lowerback 1.71925 2.83449 8.93019
upperback -7.57979 4.48094 1.41486
thorax -8.47126 1.63673 -3.85268
lowerneck -14.2008 -2.10674 -0.924626
upperneck 29.5599 -4.87049 6.48772
head 12.3137 -1.45321 1.90041
rclavicle -3.51849e-014 -3.49861e-014
rhumerus -3.47412 51.874 -81.5715
rradius 94.9526
rwrist 7.17816
rhand 8.74439 -61.2489
rfingers 7.12502
rthumb 33.9345 -88.0472
lclavicle -3.51849e-014 -3.49861e-014
lhumerus -33.2565 -15.2987 91.145
lradius 103.361
lwrist -28.4629
lhand -19.9861 -28.441
lfingers 7.12502
lthumb 6.35327 1.44374
rfemur -8.46547 18.6147 27.8508
rtibia 12.46
rfoot -13.5033 -15.9525
rtoes -4.6597
lfemur 5.04208 -32.2888 -9.10507
ltibia -2.29973
lfoot -22.2287 46.8934
ltoes 10.4187
355
root 0.602691 17.4871 9.26795 8.50445 -6.30502 -11.2453
lowerback 1.63382 2.58205 8.87451
upperback -7.55087 4.13494 1.52143
thorax -8.44445 1.4773 -3.67928
lowerneck -14.1991 -2.06577 -0.860474
upperneck 29.5367 -4.7514 6.25036
head 12.2882 -1.42384 1.81594
rclavicle -1.21756e-014 -1.00187e-013
rhumerus -5.1742 51.8868 -81.7306
rradius 95.6365
rwrist 6.76178
rhand 10.746 -60.5515
rfingers 7.12502
rthumb 35.8335 -86.9087
lclavicle -1.21756e-014 -1.00187e-013
lhumerus -33.2069 -15.0924 91.243
lradius 103.321
lwrist -28.5461
lhand -19.8949 -28.4181
lfingers 7.12502
lthumb 6.44132 1.46392
rfemur -8.21498 18.3297 27.9268
rtibia 12.2817
rfoot -13.5818 -16.3484
rtoes -4.45796
lfemur 4.96905 -32.7306 -9.04324
ltibia -2.31163
lfoot -21.6591 46.7896
ltoes 9.78019
356
root 0.603109 17.487 9.26871 8.40729 -5.72238 -11.2152
lowerback 1.55481 2.34694 8.80858
upperback -7.52774 3.81123 1.60862
thorax -8.42216 1.32824 -3.52297
lowerneck -14.2509 -1.99704 -0.817827
upperneck 29.5843 -4.6197 6.09999
head 12.3059 -1.37748 1.7713
rclavicle -2.29596e-014 2.0276e-014
rhumerus -6.52762 51.9818 -81.7865
rradius 96.1281
rwrist 6.2485
rhand 10.1834 -60.7226
rfingers 7.12502
rthumb 35.3002 -87.208
lclavicle -2.29596e-014 2.0276e-014
lhumerus -33.1992 -14.9047 91.2537
lradius 103.305
lwrist -28.5243
lhand -19.7495 -28.3301
lfingers 7.12502
lthumb 6.58162 1.54767
rfemur -8.09787 18.1056 27.9394
rtibia 12.2715
rfoot -13.7059 -16.6819
rtoes -4.08169
lfemur 4.87156 -33.1092 -9.01164
ltibia -2.30627
lfoot -21.1427 46.7039
ltoes 8.99872
357
root 0.598157 17.4909 9.26841 8.40073 -5.38913 -10.8427
lowerback 1.37739 2.16233 8.30807
upperback -7.53134 3.51425 1.61216
thorax -8.37603 1.21944 -3.21366
lowerneck -14.3052 -1.9059 -0.740055
upperneck 29.6513 -4.45626 5.91627
head 12.3291 -1.31709 1.71286
rclavicle -3.03147e-015 1.59028e-014
rhumerus -7.33772 52.2017 -81.6798
rradius 96.3528
rwrist 5.60646
rhand 9.80941 -60.8483
rfingers 7.12502
rthumb 34.9455 -87.4171
lclavicle -3.03147e-015 1.59028e-014
lhumerus -33.2584 -14.7141 91.1805
lradius 103.327
lwrist -28.4807
lhand -19.674 -28.1991
lfingers 7.12502
lthumb 6.65451 1.67634
rfemur -8.23774 18.0908 27.4989
rtibia 12.4174
rfoot -13.8455 -17.0279
rtoes -3.8833
lfemur 4.69132 -33.5463 -9.33807
ltibia -2.28148
lfoot -21.1258 46.7599
ltoes 8.95938
358
root 0.588214 17.4986 9.26876 8.50966 -5.37387 -10.1672
lowerback 1.05487 2.04682 7.38465
upperback -7.56494 3.27194 1.57115
thorax -8.27875 1.16593 -2.71628
lowerneck -14.3155 -1.78098 -0.605803
upperneck 29.7222 -4.23032 5.64143
head 12.3385 -1.23524 1.61938
rclavicle -2.29596e-014 9.14409e-015
rhumerus -7.61294 52.5745 -81.4865
rradius 96.3344
rwrist 5.04518
rhand 10.2748 -60.7553
rfingers 7.12502
rthumb 35.3869 -87.2201
lclavicle -2.29596e-014 9.14409e-015
lhumerus -33.414 -14.4547 91.1131
lradius 103.396
lwrist -28.4701
lhand -19.6898 -28.1517
lfingers 7.12502
lthumb 6.63928 1.72421
rfemur -8.61925 18.3133 26.6476
rtibia 12.6738
rfoot -13.9805 -17.3536
rtoes -3.85491
lfemur 4.46782 -34.0727 -10.0157
ltibia -2.24628
lfoot -21.6543 47.0449
ltoes 9.80429
359
root 0.584984 17.5018 9.26742 8.55296 -5.507 -9.81682
lowerback 0.89429 1.97968 6.93099
upperback -7.57865 3.14253 1.57882
thorax -8.22753 1.13533 -2.44185
lowerneck -14.3325 -1.64864 -0.467033
upperneck 29.8413 -4.01578 5.422
head 12.3722 -1.14982 1.54529
rclavicle -9.44227e-015 -1.31198e-014
rhumerus -7.35396 52.9954 -81.2704
rradius 96.0731
rwrist 4.66425
rhand 10.5573 -60.7339
rfingers 7.12502
rthumb 35.6547 -87.1345
lclavicle -9.44227e-015 -1.31198e-014
lhumerus -33.6384 -14.2174 91.0524
lradius 103.446
lwrist -28.4914
lhand -19.8422 -28.2845
lfingers 7.12502
lthumb 6.49216 1.59595
rfemur -8.87964 18.4599 26.1957
rtibia 12.947
rfoot -14.0867 -17.4146
rtoes -3.74238
lfemur 4.49053 -34.4366 -10.4781
ltibia -2.27689
lfoot -22.1357 47.37
ltoes 10.4385
360
root 0.592546 17.4968 9.26178 8.4281 -5.71044 -10.0725
lowerback 1.07536 1.97923 7.38083
upperback -7.55746 3.18583 1.63385
thorax -8.29498 1.12532 -2.64252
lowerneck -14.332 -1.56732 -0.337092
upperneck 29.9603 -3.90331 5.29867
head 12.4102 -1.09886 1.49424
rclavicle 1.75924e-014 1.55052e-014
rhumerus -6.71303 53.3178 -81.0965
rradius 95.6254
rwrist 4.5894
rhand 10.6217 -60.5657
rfingers 7.12502
rthumb 35.7157 -86.9515
lclavicle 1.75924e-014 1.55052e-014
lhumerus -33.8539 -14.1649 90.9716
lradius 103.387
lwrist -28.5078
lhand -19.9101 -28.5072
lfingers 7.12502
lthumb 6.42662 1.37533
rfemur -8.83414 18.36 26.5171
rtibia 13.1697
rfoot -14.1344 -17.0988
rtoes -3.71366
lfemur 4.9255 -34.543 -10.48
ltibia -2.42933
lfoot -22.4252 47.6255
ltoes 10.6888
361
root 0.604129 17.488 9.25216 8.28033 -6.07341 -10.6904
lowerback 1.41225 2.05647 8.33498
upperback -7.54124 3.38314 1.71115
thorax -8.42801 1.15357 -3.11579
lowerneck -14.2347 -1.55226 -0.19393
upperneck 30.0255 -3.90414 5.23018
head 12.4121 -1.09269 1.4445
rclavicle -9.98893e-015 8.74653e-015
rhumerus -5.80803 53.5757 -80.9972
rradius 95.1101
rwrist 4.87839
rhand 10.3756 -60.3216
rfingers 7.12502
rthumb 35.4825 -86.7636
lclavicle -9.98893e-015 8.74653e-015
lhumerus -34.0037 -14.2384 90.8738
lradius 103.291
lwrist -28.4635
lhand -19.782 -28.5654
lfingers 7.12502
lthumb 6.55024 1.31333
rfemur -8.73314 18.1974 27.2749
rtibia 13.4341
rfoot -14.1367 -16.5423
rtoes -4.00068
lfemur 5.52437 -34.3959 -10.1307
ltibia -2.66095
lfoot -22.7481 47.8046
ltoes 11.0445
362
root 0.610474 17.484 9.24305 8.26579 -6.68018 -10.9177
lowerback 1.56312 2.19325 8.77244
upperback -7.53964 3.60844 1.70545
thorax -8.4732 1.23092 -3.38621
lowerneck -14.1525 -1.54565 -0.093974
upperneck 30.1248 -3.93123 5.23445
head 12.4348 -1.09286 1.42659
rclavicle 2.29099e-014 3.53837e-014
rhumerus -4.52147 53.8475 -80.8408
rradius 94.5366
rwrist 5.35397
rhand 9.97302 -60.2013
rfingers 7.12502
rthumb 35.1008 -86.7338
lclavicle 2.29099e-014 3.53837e-014
lhumerus -34.0891 -14.2625 90.7607
lradius 103.27
lwrist -28.4294
lhand -19.7 -28.4857
lfingers 7.12502
lthumb 6.6294 1.39049
rfemur -8.8846 18.2468 27.5127
rtibia 13.7774
rfoot -14.1316 -16.0046
rtoes -4.44575
lfemur 5.87438 -34.0785 -10.1092
ltibia -2.7566
lfoot -23.2293 47.9696
ltoes 11.6388
363
root 0.611327 17.4839 9.23498 8.35381 -7.4393 -10.7537
lowerback 1.53061 2.38481 8.69885
upperback -7.53959 3.84956 1.61416
thorax -8.42069 1.35286 -3.45807
lowerneck -14.2191 -1.54422 -0.0813408
upperneck 30.3338 -3.96941 5.29505
head 12.5374 -1.09559 1.44487
rclavicle -1.20762e-014 6.75868e-015
rhumerus -2.94494 54.0934 -80.5341
rradius 93.9126
rwrist 5.80781
rhand 9.59243 -60.1396
rfingers 7.12502
rthumb 34.7397 -86.7561
lclavicle -1.20762e-014 6.75868e-015
lhumerus -34.1153 -14.2613 90.6545
lradius 103.238
lwrist -28.4809
lhand -19.5778 -28.5178
lfingers 7.12502
lthumb 6.74744 1.35474
rfemur -9.2229 18.503 27.2412
rtibia 14.1118
rfoot -14.0892 -15.5618
rtoes -4.98084
lfemur 5.96657 -33.6542 -10.4139
ltibia -2.71325
lfoot -23.6463 48.1599
ltoes 12.1048
364
root 0.61282 17.4823 9.22578 8.48237 -8.15904 -10.7568
lowerback 1.51686 2.59229 8.82548
upperback -7.56181 4.12894 1.53777
thorax -8.39138 1.47872 -3.6278
lowerneck -14.2816 -1.58077 -0.129458
upperneck 30.4834 -4.06929 5.4392
head 12.6213 -1.12304 1.49579
rclavicle 1.98785e-015 1.31198e-014
rhumerus -1.40954 54.2475 -80.2168
rradius 93.3245
rwrist 6.11076
rhand 9.19213 -60.0712
rfingers 7.12502
rthumb 34.3597 -86.7744
lclavicle 1.98785e-015 1.31198e-014
lhumerus -34.118 -14.3026 90.5648
lradius 103.148
lwrist -28.5258
lhand -19.4124 -28.554
lfingers 7.12502
lthumb 6.90702 1.31333
rfemur -9.55687 18.7462 27.1575
rtibia 14.3967
rfoot -14.0048 -15.0963
rtoes -5.4402
lfemur 6.03672 -33.2108 -10.4824
ltibia -2.74509
lfoot -23.8974 48.3683
ltoes 12.399
365
root 0.611424 17.4845 9.21923 8.65228 -8.87277 -10.4424
lowerback 1.37831 2.79567 8.53091
upperback -7.61284 4.36099 1.39617
thorax -8.33992 1.60869 -3.62453
lowerneck -14.2363 -1.6299 -0.209803
upperneck 30.4789 -4.19357 5.66778
head 12.6235 -1.15926 1.57916
rclavicle -3.8763e-015 1.86858e-014
rhumerus -0.119042 54.3579 -79.9557
rradius 92.9363
rwrist 6.24116
rhand 8.83131 -60.1161
rfingers 7.12502
rthumb 34.0171 -86.8961
lclavicle -3.8763e-015 1.86858e-014
lhumerus -34.101 -14.3379 90.5075
lradius 103.086
lwrist -28.5154
lhand -19.3922 -28.5162
lfingers 7.12502
lthumb 6.92652 1.35047
rfemur -9.97162 19.0589 26.6679
rtibia 14.6152
rfoot -13.9385 -14.7282
rtoes -5.63361
lfemur 5.99019 -32.9685 -10.8877
ltibia -2.73118
lfoot -24.4527 48.6568
ltoes 13.1064
366
root 0.604845 17.4913 9.21574 8.83729 -9.54527 -9.64715
lowerback 1.06248 2.99334 7.58028
upperback -7.67786 4.52729 1.18557
thorax -8.23882 1.75162 -3.31731
lowerneck -14.1694 -1.67916 -0.25848
upperneck 30.4285 -4.28876 5.79219
head 12.5975 -1.1937 1.6206
rclavicle -2.10712e-014 -1.47101e-014
rhumerus 0.809474 54.4377 -79.6853
rradius 92.7843
rwrist 6.33622
rhand 8.74103 -60.2492
rfingers 7.12502
rthumb 33.9313 -87.0482
lclavicle -2.10712e-014 -1.47101e-014
lhumerus -34.0487 -14.3606 90.5426
lradius 103.039
lwrist -28.5492
lhand -19.5061 -28.5951
lfingers 7.12502
lthumb 6.81658 1.27519
rfemur -10.4733 19.4454 25.5803
rtibia 14.7278
rfoot -13.8644 -14.5467
rtoes -5.60353
lfemur 5.72275 -32.9403 -11.7711
ltibia -2.55503
lfoot -25.2859 48.9499
ltoes 14.1457
